<?xml version="1.0" standalone="no"?>
<!DOCTYPE svg PUBLIC "-//W3C//DTD SVG 20010904//EN"
 "http://www.w3.org/TR/2001/REC-SVG-20010904/DTD/svg10.dtd">
<svg version="1.0" xmlns="http://www.w3.org/2000/svg"
 width="400.000000pt" height="400.000000pt" viewBox="0 0 400.000000 400.000000"
 preserveAspectRatio="xMidYMid meet">
<metadata>
Created by potrace 1.11, written by Peter Selinger 2001-2013
</metadata>
<g transform="translate(0.000000,400.000000) scale(0.100000,-0.100000)"
fill="#000000" stroke="none">
<path d="M1825 3450 c-55 -4 -111 -12 -125 -17 -14 -6 -49 -14 -79 -18 -104
-14 -325 -95 -470 -172 -170 -90 -284 -176 -431 -324 -142 -145 -147 -150
-244 -303 -123 -195 -228 -473 -263 -696 -44 -288 -5 -655 100 -920 73 -184
80 -190 262 -190 155 0 175 4 175 35 0 13 -27 76 -59 142 -144 289 -195 640
-135 918 8 39 19 92 24 120 21 102 105 294 178 405 87 132 255 330 279 330 5
0 22 14 38 30 16 17 33 30 38 30 5 0 27 15 50 33 57 45 95 68 206 122 151 75
307 116 508 136 111 11 148 10 278 -5 83 -9 175 -24 205 -33 120 -35 297 -108
360 -148 125 -79 192 -129 275 -207 232 -218 368 -469 439 -808 21 -103 26
-152 26 -276 0 -94 -5 -170 -14 -204 -7 -30 -21 -90 -30 -132 -15 -69 -20 -77
-46 -87 -19 -6 -270 -8 -732 -5 -386 2 -710 2 -720 -1 -28 -9 -36 -61 -34
-218 1 -135 3 -150 20 -163 17 -12 146 -14 832 -14 470 0 823 4 837 9 51 20
147 262 192 485 37 182 36 511 -1 686 -50 235 -135 450 -246 621 -24 36 -58
89 -76 117 -19 29 -38 52 -42 52 -5 0 -26 24 -47 53 -67 93 -279 275 -418 359
-134 80 -282 146 -415 184 -257 75 -427 93 -695 74z"/>
</g>
</svg>
